<?xml version="1.0" encoding="UTF-8"?>
<svg version="1.1" xmlns="http://www.w3.org/2000/svg" width="1006" height="216">
  <path d="M0 0 C6.12045503 11.51192286 8.35280448 26.1167642 9 39 C9.04125 39.68707031 9.0825 40.37414063 9.125 41.08203125 C9.49952141 53.32419975 7.20213796 65.42840839 3.8046875 77.12109375 C2.91026878 79.82282014 2.91026878 79.82282014 3 82 C14.84400741 58.25449 17.38554261 37.29400596 17 11 C41.51759461 31.7684603 53.94161684 57.16867005 57 89 C58.57522707 110.7085981 52.48868781 131.22556129 42 150 C41.45601562 150.98613281 40.91203125 151.97226563 40.3515625 152.98828125 C33.70711852 164.18660025 24.03567166 173.79815589 14 182 C13.01 182.825 12.02 183.65 11 184.5 C1.96966155 189.01516922 -9.92982614 184.3561484 -18.99707031 181.33447266 C-38.45530788 174.44362311 -53.61037715 162.54270395 -68 148 C-53.5468104 169.79937345 -36.53737114 183.707708 -13 195 C-14 197 -14 197 -16.73828125 198 C-20.48357416 199.04786337 -24.22826082 200.05123262 -28 201 C-29.38058594 201.34804688 -29.38058594 201.34804688 -30.7890625 201.703125 C-57.77091916 207.27459983 -86.52333291 201.22223924 -109.8671875 187.0859375 C-134.44479455 170.7212964 -151.4293799 146.78423523 -158 118 C-158.85957186 113.67963879 -159.59456109 109.38721204 -160 105 C-160.12117187 104.02804688 -160.24234375 103.05609375 -160.3671875 102.0546875 C-159.85317339 97.77852754 -157.61020126 95.38984192 -154.8125 92.3125 C-154.27149658 91.7038208 -153.73049316 91.0951416 -153.1730957 90.46801758 C-135.32650485 70.83394259 -113.72170452 60.35212946 -88 55 C-111.46990599 54.02359405 -136.42378617 61.04587264 -154.265625 76.84765625 C-154.83796875 77.22792969 -155.4103125 77.60820313 -156 78 C-156.99 77.67 -157.98 77.34 -159 77 C-154.53341028 57.00544249 -147.51043073 39.76639383 -134 24 C-133.32324219 23.17757812 -132.64648438 22.35515625 -131.94921875 21.5078125 C-103.34644412 -12.06253724 -37.33314442 -29.80420709 0 0 Z M-75 55 C-79.33801416 65.98816785 -82.38782146 77.16454821 -83 89 C-83.05285156 89.86367187 -83.10570313 90.72734375 -83.16015625 91.6171875 C-83.63692357 106.58353561 -80.26140526 121.08743035 -75 135 C-48.33694814 131.00579775 -24.84425794 118.3470045 -7 98 C-5.72131603 95.82447656 -5.72131603 95.82447656 -5 94 C-21.50954708 74.33309714 -44.37718274 59.41238847 -70 55 C-71.66615464 54.95869038 -73.33421236 54.94587694 -75 55 Z M0 85 C1 87 1 87 1 87 Z " fill="currentColor" transform="translate(160,13)"/>
  <path d="M0 0 C24.51759461 20.7684603 36.94161684 46.16867005 40 78 C41.57522707 99.7085981 35.48868781 120.22556129 25 139 C24.45601563 139.98613281 23.91203125 140.97226563 23.3515625 141.98828125 C16.70711852 153.18660025 7.03567166 162.79815589 -3 171 C-3.99 171.825 -4.98 172.65 -6 173.5 C-15.03033845 178.01516922 -26.92982614 173.3561484 -35.99707031 170.33447266 C-48.54369987 165.89126775 -59.81999971 159.59724406 -70 151 C-70.81210938 150.32195312 -71.62421875 149.64390625 -72.4609375 148.9453125 C-80.07132825 142.36525158 -87.17016159 134.90264886 -92 126 C-92 125.34 -92 124.68 -92 124 C-91.01902344 123.78085938 -90.03804688 123.56171875 -89.02734375 123.3359375 C-59.33955078 116.46208015 -32.92225019 101.16972843 -16.22900391 75.05126953 C-9.70687643 64.16550968 -4.67764022 52.41182398 -2 40 C-1.77699219 38.99066406 -1.55398437 37.98132812 -1.32421875 36.94140625 C0.86256684 24.7876387 0.18030478 12.29678592 0 0 Z " fill="currentColor" transform="translate(177,24)"/>
  <path d="M0 0 C-0.73927313 4.03932739 -1.8125904 7.92720404 -2.9375 11.875 C-10.13840799 38.22081752 -7.90019944 68.28261865 5.75 92.375 C18.4870371 113.15138371 34.81409052 128.06691282 56.796875 138.40625 C60 140 60 140 62 142 C39.62234521 152.8314447 10.86729708 151.5165734 -12.23144531 143.69213867 C-40.20682445 133.67272604 -62.09534955 113.81165685 -75.24951172 87.23022461 C-80.58242488 75.87780942 -83.84615487 63.48563755 -85 51 C-85.12117188 50.02804688 -85.24234375 49.05609375 -85.3671875 48.0546875 C-84.85317339 43.77852754 -82.61020126 41.38984192 -79.8125 38.3125 C-79.00099487 37.3994812 -79.00099487 37.3994812 -78.1730957 36.46801758 C-59.09723066 15.48154639 -33.32127444 2.25807679 -4.8828125 0.078125 C-3.25639954 0.01063898 -1.62781249 0 0 0 Z " fill="currentColor" transform="translate(85,67)"/>
  <path d="M0 0 C3.93887733 1.31295911 6.33874668 0.05230831 10.0625 -1.3125 C25.87457447 -6.81268002 45.74597269 -10.5986728 61.5625 -3.1875 C70.92504016 2.36517533 75.09351891 9.5628888 78.421875 19.6640625 C79.77045384 25.11304999 80.1275504 30.50105066 80.14526367 36.09692383 C80.14862228 36.7677298 80.1519809 37.43853577 80.15544128 38.12966919 C80.16485515 40.32214257 80.16688868 42.51453899 80.16796875 44.70703125 C80.17118501 46.23923269 80.17454936 47.77143383 80.17805481 49.30363464 C80.1840199 52.50182814 80.18589711 55.6999947 80.18530273 58.89819336 C80.18520057 63.0018574 80.1989198 67.10535053 80.21607494 71.20897388 C80.22716676 74.36674297 80.22922291 77.52447012 80.22869301 80.6822567 C80.2298748 82.19616987 80.23430772 83.71008408 80.24202538 85.22397804 C80.25178036 87.33279302 80.24896675 89.44122825 80.24291992 91.55004883 C80.24434494 92.75027176 80.24576996 93.95049469 80.24723816 95.18708801 C80 98 80 98 78 100 C75.45464859 100.19849071 73.04283241 100.27851775 70.5 100.25 C69.81035156 100.25773437 69.12070312 100.26546875 68.41015625 100.2734375 C63.25333293 100.25333293 63.25333293 100.25333293 61 98 C60.73498535 95.53117371 60.73498535 95.53117371 60.71289062 92.37963867 C60.69947632 91.20048386 60.68606201 90.02132904 60.67224121 88.80644226 C60.66432556 86.88164787 60.66432556 86.88164787 60.65625 84.91796875 C60.64260228 83.58432336 60.62781412 82.25068921 60.61193848 80.91706848 C60.56365785 76.67394724 60.53087725 72.43077867 60.5 68.1875 C60.46410926 63.30440392 60.42159114 58.4215223 60.36405945 53.53862953 C60.34432842 51.59980553 60.33587328 49.66087702 60.32775879 47.7219696 C60.4757307 30.96116627 60.4757307 30.96116627 54 16 C49.10179305 11.45166497 42.83309366 11.4620399 36.43774414 11.51806641 C28.03696831 11.85117543 18.0710636 13.2859576 11 18 C11.48895752 19.71304321 11.48895752 19.71304321 11.98779297 21.46069336 C13.5976749 28.75627506 13.24650131 36.20074183 13.1953125 43.62890625 C13.19157605 45.2302991 13.18873207 46.83169425 13.18673706 48.43309021 C13.17915029 52.62027448 13.15954517 56.80731701 13.1373291 60.9944458 C13.11676311 65.27817875 13.10771249 69.5619349 13.09765625 73.84570312 C13.07629394 82.23053334 13.04221886 90.61524897 13 99 C10.04412889 100.47793555 7.35002355 100.17053651 4.0625 100.1875 C2.81597656 100.20167969 1.56945312 100.21585937 0.28515625 100.23046875 C-3 100 -3 100 -6 98 C-6.37854004 95.37258911 -6.37854004 95.37258911 -6.38476562 91.99658203 C-6.39487671 90.73411652 -6.40498779 89.471651 -6.41540527 88.17092896 C-6.41384933 87.49332645 -6.4122934 86.81572395 -6.41069031 86.11758804 C-6.40620896 83.98831381 -6.42022677 81.85986968 -6.43908691 79.73068237 C-6.47592867 75.19546889 -6.48955461 70.66034097 -6.5 66.125 C-6.51213509 60.90063382 -6.53413003 55.67666833 -6.58000183 50.45248032 C-6.59340169 48.37433109 -6.58942914 46.29671055 -6.58459473 44.21853638 C-6.66168334 34.35295992 -6.93852692 22.64992917 -14 15 C-20.11289858 11.58036782 -25.53801202 11.60801697 -32.4375 11.75 C-33.43587891 11.75515625 -34.43425781 11.7603125 -35.46289062 11.765625 C-41.06767779 11.82458397 -46.44523445 12.28724893 -52 13 C-52.00586624 14.06044525 -52.01173248 15.1208905 -52.01777649 16.21347046 C-52.07490481 26.190544 -52.14761405 36.1673975 -52.23571491 46.14424706 C-52.28050783 51.27388321 -52.31974402 56.40343831 -52.34643555 61.53320312 C-52.37237984 66.48056105 -52.41271852 71.42760849 -52.46318626 76.37477493 C-52.47991528 78.26543959 -52.49139182 80.15615802 -52.49761391 82.04688644 C-52.50718975 84.68832976 -52.53516923 87.3289678 -52.56762695 89.97021484 C-52.56619186 90.75783707 -52.56475677 91.54545929 -52.5632782 92.35694885 C-52.60127258 94.53256226 -52.60127258 94.53256226 -53 98 C-56.66763317 100.44508878 -58.63431775 100.29885724 -63 100.3125 C-64.85625 100.33763672 -64.85625 100.33763672 -66.75 100.36328125 C-70 100 -70 100 -71.68057728 98.73237133 C-73.29559085 96.61189609 -73.37091623 95.56185926 -73.36076355 92.91877747 C-73.36488754 92.09006638 -73.36901154 91.26135529 -73.3732605 90.40753174 C-73.36247467 89.50194519 -73.35168884 88.59635864 -73.34057617 87.66333008 C-73.34101425 86.70704208 -73.34145233 85.75075409 -73.34190369 84.76548767 C-73.3398112 81.59996223 -73.31645816 78.43496433 -73.29296875 75.26953125 C-73.28737444 73.07663767 -73.28310356 70.88374034 -73.28010559 68.69084167 C-73.26864387 62.91543246 -73.23916511 57.1402491 -73.20599365 51.3649292 C-73.17532146 45.47313492 -73.16160635 39.5813042 -73.14648438 33.68945312 C-73.11429681 22.12620278 -73.06308431 10.56312016 -73 -1 C-51.66126008 -8.2423516 -20.06481412 -11.72831294 0 0 Z " fill="currentColor" transform="translate(858,58)"/>
  <path d="M0 0 C12.47783166 13.22416925 14.61997718 28.70045618 14.1875 46.2421875 C13.47284137 61.69059683 8.19101554 75.19085019 -3.16015625 85.96484375 C-13.93751256 94.44538642 -26.89381912 95.71502353 -40.16015625 94.96484375 C-46.73687362 93.88118009 -52.23168577 91.9804376 -58.16015625 88.96484375 C-58.15230103 90.7291272 -58.15230103 90.7291272 -58.14428711 92.52905273 C-58.12623962 96.87686406 -58.11472517 101.22467205 -58.10522461 105.57250977 C-58.10018381 107.45728105 -58.09335127 109.3420484 -58.0847168 111.22680664 C-58.07264008 113.92986011 -58.06692557 116.63286206 -58.0625 119.3359375 C-58.05733871 120.18385361 -58.05217743 121.03176971 -58.04685974 121.90538025 C-58.0466643 123.92555443 -58.09809414 125.94562309 -58.16015625 127.96484375 C-60.04568155 129.85036905 -62.73784456 129.09731064 -65.2421875 129.1015625 C-66.04011719 129.09769531 -66.83804687 129.09382812 -67.66015625 129.08984375 C-68.45808594 129.09371094 -69.25601562 129.09757813 -70.078125 129.1015625 C-76.03354858 129.09145142 -76.03354858 129.09145142 -77.16015625 127.96484375 C-77.2564767 126.20590945 -77.28203135 124.44307216 -77.28041077 122.6815033 C-77.28178543 121.53580368 -77.2831601 120.39010406 -77.28457642 119.20968628 C-77.28098114 117.94158112 -77.27738586 116.67347595 -77.27368164 115.36694336 C-77.27339977 114.02691144 -77.2735575 112.68687936 -77.27412415 111.34684753 C-77.27441212 107.69824937 -77.26851545 104.0496838 -77.26155019 100.40109324 C-77.26155019 100.40109324 -77.26155019 100.40109324 -77.26155019 100.40109324 C-77.25531659 96.59206859 -77.25471285 92.78304325 -77.25352478 88.97401428 C-77.25041148 81.75626621 -77.24219811 74.53853321 -77.23217529 67.32079178 C-77.22101411 59.10569118 -77.21550369 50.89058987 -77.21047986 42.67548358 C-77.2000155 25.77192824 -77.18241608 8.86838759 -77.16015625 -8.03515625 C-53.96457774 -17.66467816 -19.12894387 -18.02202487 0 0 Z M-58.16015625 5.96484375 C-58.34569215 14.22282159 -58.48774533 22.47992615 -58.57465363 30.7394743 C-58.61637113 34.57503153 -58.67292584 38.40916108 -58.76367188 42.24389648 C-58.85073691 45.94634269 -58.89845627 49.64741812 -58.91917419 53.3508091 C-58.9339328 54.76197714 -58.96275693 56.17307176 -59.0059967 57.5836544 C-59.53617943 65.28611504 -59.53617943 65.28611504 -56.43702698 71.93037415 C-54.36664467 73.26165759 -52.48383567 74.16841102 -50.16015625 74.96484375 C-49.11730469 75.34253906 -48.07445312 75.72023438 -47 76.109375 C-37.72523454 78.24394417 -30.03324434 78.96112006 -21.16015625 74.96484375 C-13.38670267 70.04945868 -13.38670267 70.04945868 -13.38670267 70.04945868 C-13.38670267 70.04945868 -9.75477644 63.65218813 -7.16015625 54.96484375 C-4.48449564 42.17345979 -5.29656846 28.96044903 -11.5625 17.37109375 C-16.56772782 10.02846126 -24.54614602 5.80815848 -33.16015625 3.96484375 C-35.92236766 3.84364468 -38.64829388 3.77974537 -41.41015625 3.77734375 C-42.49876953 3.75897461 -42.49876953 3.75897461 -43.609375 3.74023438 C-44.33253906 3.73830078 -45.05570312 3.73636719 -45.80078125 3.734375 C-46.76806152 3.72821167 -46.76806152 3.72821167 -47.75488281 3.72192383 C-51.3313968 4.08313286 -54.68599762 5.04624417 -58.16015625 5.96484375 Z " fill="currentColor" transform="translate(455.16015625,65.03515625)"/>
  <path d="M0 0 C12.45793922 13.20308699 14.63658376 29.03603772 14.19140625 46.56640625 C13.49296685 60.88190154 8.45902512 75.04934308 -2.16015625 84.96484375 C-13.46108994 94.09252096 -26.00700446 95.76517079 -40.16015625 94.96484375 C-46.73687362 93.88118009 -52.23168577 91.9804376 -58.16015625 88.96484375 C-58.15230103 90.7291272 -58.15230103 90.7291272 -58.14428711 92.52905273 C-58.12623962 96.87686406 -58.11472517 101.22467205 -58.10522461 105.57250977 C-58.10018381 107.45728105 -58.09335127 109.3420484 -58.0847168 111.22680664 C-58.07264008 113.92986011 -58.06692557 116.63286206 -58.0625 119.3359375 C-58.05733871 120.18385361 -58.05217743 121.03176971 -58.04685974 121.90538025 C-58.0466643 123.92555443 -58.09809414 125.94562309 -58.16015625 127.96484375 C-60.04568155 129.85036905 -62.73784456 129.09731064 -65.2421875 129.1015625 C-66.04011719 129.09769531 -66.83804687 129.09382812 -67.66015625 129.08984375 C-68.45808594 129.09371094 -69.25601562 129.09757813 -70.078125 129.1015625 C-76.03354858 129.09145142 -76.03354858 129.09145142 -77.16015625 127.96484375 C-77.2564767 126.20590945 -77.28203135 124.44307216 -77.28041077 122.6815033 C-77.28178543 121.53580368 -77.2831601 120.39010406 -77.28457642 119.20968628 C-77.28098114 117.94158112 -77.27738586 116.67347595 -77.27368164 115.36694336 C-77.27339977 114.02691144 -77.2735575 112.68687936 -77.27412415 111.34684753 C-77.27441212 107.69824937 -77.26851545 104.0496838 -77.26155019 100.40109324 C-77.25531659 96.59206859 -77.25471285 92.78304325 -77.25352478 88.97401428 C-77.25041148 81.75626621 -77.24219811 74.53853321 -77.23217529 67.32079178 C-77.22101411 59.10569118 -77.21550369 50.89058987 -77.21047986 42.67548358 C-77.2000155 25.77192824 -77.18241608 8.86838759 -77.16015625 -8.03515625 C-53.96457774 -17.66467816 -19.12894387 -18.02202487 0 0 Z M-58.16015625 5.96484375 C-58.34569215 14.22282159 -58.48774533 22.47992615 -58.57465363 30.7394743 C-58.61637113 34.57503153 -58.67292584 38.40916108 -58.76367188 42.24389648 C-58.85073691 45.94634269 -58.89845627 49.64741812 -58.91917419 53.3508091 C-58.9339328 54.76197714 -58.96275693 56.17307176 -59.0059967 57.5836544 C-59.5381375 65.28876459 -59.5381375 65.28876459 -56.43084717 71.92913818 C-54.3647543 73.2537386 -52.47352637 74.16124262 -50.16015625 74.96484375 C-49.1753125 75.35414063 -48.19046875 75.7434375 -47.17578125 76.14453125 C-38.02765492 78.44448392 -28.42892386 79.23343509 -19.96875 74.30859375 C-12.00992238 68.39533953 -8.49093519 60.60099475 -6.57421875 51.04296875 C-4.80752309 37.90941989 -5.86760451 24.94680397 -14.0703125 14.16015625 C-20.27719571 7.64002847 -28.5528542 4.01219095 -37.53515625 3.69921875 C-39.0768228 3.69397499 -40.6185589 3.69932431 -42.16015625 3.71484375 C-43.31257812 3.70324219 -43.31257812 3.70324219 -44.48828125 3.69140625 C-45.24625 3.69398437 -46.00421875 3.6965625 -46.78515625 3.69921875 C-47.45804688 3.70147461 -48.1309375 3.70373047 -48.82421875 3.70605469 C-52.05961624 4.06449128 -55.05319119 5.01789647 -58.16015625 5.96484375 Z " fill="currentColor" transform="translate(574.16015625,65.03515625)"/>
  <path d="M0 0 C7.69871727 7.75645765 8.66913236 19.16701473 8.71424484 29.54323864 C8.70291623 31.99786763 8.67217703 34.45180486 8.640625 36.90625 C8.63314596 38.63644246 8.62746091 40.3666435 8.62347412 42.09684753 C8.6083484 46.60637637 8.56918283 51.11537326 8.5246582 55.62469482 C8.48342018 60.24386402 8.46540276 64.86312086 8.4453125 69.48242188 C8.40267296 78.51325197 8.33458433 87.54369078 8.25 96.57421875 C6.68739182 96.89661338 5.12420575 97.21620764 3.56079102 97.53466797 C2.6903566 97.71295135 1.81992218 97.89123474 0.92311096 98.07492065 C-18.41998477 101.68792849 -44.52594694 104.75110897 -61.62890625 93.29296875 C-69.17623484 87.17726971 -71.9929276 79.50353423 -73.03125 70 C-73.36004657 61.27319115 -71.17879117 53.20246351 -65.60546875 46.390625 C-55.65992819 36.65446424 -41.75210696 34.37467679 -28.375 34.38671875 C-27.25943726 34.38575195 -27.25943726 34.38575195 -26.12133789 34.38476562 C-20.74604732 34.43644546 -15.93251862 35.06657697 -10.75 36.57421875 C-10.91900589 24.43659657 -10.91900589 24.43659657 -15.75 13.57421875 C-26.3629633 6.49890988 -40.47305594 9.39179324 -52.26391602 11.59472656 C-56.36251232 12.33392313 -59.68377411 12.89792191 -63.75 11.57421875 C-65.6175318 9.70668695 -65.18234834 6.64944678 -65.375 4.13671875 C-65.47039062 2.96238281 -65.56578125 1.78804687 -65.6640625 0.578125 C-65.75 -2.42578125 -65.75 -2.42578125 -64.75 -4.42578125 C-62.27795999 -5.05431697 -59.88279692 -5.55792741 -57.375 -5.98828125 C-56.64474609 -6.11759033 -55.91449219 -6.24689941 -55.16210938 -6.38012695 C-37.25152124 -9.46319405 -15.02544742 -12.24171498 0 0 Z M-50.75 58.57421875 C-53.31240949 62.82729016 -53.28901715 66.73148652 -52.75 71.57421875 C-51.05956342 76.28964711 -48.93806242 78.84710833 -44.75 81.57421875 C-38.88609561 84.24481378 -32.93283273 83.83348451 -26.625 83.76171875 C-25.54089844 83.76107422 -24.45679688 83.76042969 -23.33984375 83.75976562 C-18.88261305 83.73497262 -15.09879607 83.66141777 -10.75 82.57421875 C-10.75 72.34421875 -10.75 62.11421875 -10.75 51.57421875 C-24.26023453 49.32251299 -40.45795978 48.02487753 -50.75 58.57421875 Z " fill="currentColor" transform="translate(337.75,59.42578125)"/>
  <path d="M0 0 C0.79792969 0.00386719 1.59585938 0.00773437 2.41796875 0.01171875 C3.21589844 0.00785156 4.01382813 0.00398438 4.8359375 0 C10.79136108 0.01011108 10.79136108 0.01011108 11.91796875 1.13671875 C12.03052531 2.77001688 12.07474729 4.40808039 12.09155273 6.04516602 C12.10504257 7.09458878 12.11853241 8.14401154 12.13243103 9.22523499 C12.14286942 10.37293869 12.1533078 11.5206424 12.1640625 12.703125 C12.19705431 15.13346642 12.23026489 17.56380488 12.26367188 19.99414062 C12.31070478 23.82476322 12.3550137 27.65537883 12.39477539 31.48608398 C11.29084006 57.96005705 11.29084006 57.96005705 19.91796875 82.13671875 C27.05984676 88.62933513 36.20425671 88.35171456 45.30664062 87.95703125 C46.51900391 87.89257812 47.73136719 87.828125 48.98046875 87.76171875 C50.22763672 87.705 51.47480469 87.64828125 52.75976562 87.58984375 C55.81317128 87.44945728 58.86561606 87.29815812 61.91796875 87.13671875 C61.91574814 86.06152481 61.91352753 84.98633087 61.91123962 83.8785553 C61.89100885 73.76887674 61.87599692 63.65920227 61.86615658 53.54950809 C61.86092759 48.3514376 61.85382965 43.15338339 61.8425293 37.95532227 C61.83170099 32.94329607 61.82569204 27.93128557 61.82309151 22.91924858 C61.82123716 21.00259593 61.81761635 19.08594418 61.81223869 17.16929817 C61.805029 14.49443803 61.80397778 11.81964361 61.80444336 9.14477539 C61.80084808 8.34420715 61.79725281 7.54363892 61.79354858 6.71881104 C61.80391659 1.25077091 61.80391659 1.25077091 62.91796875 0.13671875 C65.76131923 0.036849 68.57494038 -0.00206006 71.41796875 0.01171875 C72.61486328 0.00591797 72.61486328 0.00591797 73.8359375 0 C79.79136108 0.01011108 79.79136108 0.01011108 80.91796875 1.13671875 C81.01330528 4.24179125 81.04348001 7.32458333 81.03149414 10.42993164 C81.03164017 11.40543472 81.03178619 12.38093781 81.03193665 13.38600159 C81.03123708 16.62714828 81.02344266 19.86823829 81.015625 23.109375 C81.01376097 25.34997018 81.012337 27.59056577 81.01133728 29.8311615 C81.00751088 35.74131385 80.99767955 41.6514418 80.9866333 47.56158447 C80.97642181 53.58727692 80.97184022 59.61297328 80.96679688 65.63867188 C80.95605739 77.47136491 80.93897951 89.30403981 80.91796875 101.13671875 C67.58843765 105.69986696 53.27903107 106.2041562 39.29296875 106.32421875 C38.42220703 106.33727051 37.55144531 106.35032227 36.65429688 106.36376953 C25.03254261 106.37911902 13.91712987 103.97361041 4.77734375 96.3515625 C-6.93377017 83.95305711 -7.40075145 67.69899841 -7.3125 51.5625 C-7.31130477 50.1023106 -7.31085576 48.64212041 -7.31111145 47.18193054 C-7.30956126 44.150615 -7.30137667 41.11942003 -7.2878418 38.08813477 C-7.27068593 34.19642387 -7.26703298 30.30484265 -7.26778698 26.41309834 C-7.267516 23.41150162 -7.26204927 20.40993344 -7.25478554 17.40834618 C-7.25160032 15.97176516 -7.2496318 14.53518093 -7.24889183 13.09859657 C-7.24673619 11.10518862 -7.23721062 9.11179266 -7.22729492 7.1184082 C-7.22348312 5.98434036 -7.21967133 4.85027252 -7.21574402 3.68183899 C-6.9600093 -1.18587579 -4.24452716 0.00720633 0 0 Z " fill="currentColor" transform="translate(673.08203125,53.86328125)"/>
  <path d="M0 0 C1.56125851 0.00399299 3.12251789 0.01875614 4.68359375 0.04296875 C5.47701172 0.04361328 6.27042969 0.04425781 7.08789062 0.04492188 C12.98083853 0.09021353 12.98083853 0.09021353 14.12109375 1.23046875 C14.23244471 4.35525208 14.27850039 7.45813541 14.28222656 10.58374023 C14.28719147 11.5657843 14.29215637 12.54782837 14.29727173 13.55963135 C14.31193374 16.8236154 14.31870163 20.08755087 14.32421875 23.3515625 C14.32996634 25.60978701 14.33572411 27.8680115 14.3414917 30.12623596 C14.35201283 34.8667931 14.35784839 39.60733321 14.36132812 44.34790039 C14.36681889 50.43593924 14.39085479 56.5237551 14.41930008 62.6117239 C14.43788015 67.27757942 14.44312955 71.9433807 14.444664 76.6092701 C14.44770094 78.85445438 14.45576417 81.09963748 14.46884918 83.34478569 C14.48581503 86.47929972 14.48405278 89.61326203 14.47753906 92.74780273 C14.48675385 93.68346573 14.49596863 94.61912872 14.50546265 95.58314514 C14.49989349 96.43427887 14.49432434 97.2854126 14.48858643 98.16233826 C14.49005299 98.90400458 14.49151955 99.64567091 14.49303055 100.40981197 C14.12109375 102.23046875 14.12109375 102.23046875 11.12109375 104.23046875 C7.87109375 104.53125 7.87109375 104.53125 4.12109375 104.54296875 C2.26484375 104.56810547 2.26484375 104.56810547 0.37109375 104.59375 C-2.87890625 104.23046875 -2.87890625 104.23046875 -4.55864239 102.96437168 C-6.17677461 100.83927814 -6.25374128 99.77408755 -6.25312805 97.1247406 C-6.26014236 96.29050568 -6.26715668 95.45627075 -6.27438354 94.59675598 C-6.26673981 93.68496078 -6.25909607 92.77316559 -6.2512207 91.83374023 C-6.25487137 90.87091125 -6.25852203 89.90808228 -6.26228333 88.91607666 C-6.27040146 85.72772688 -6.25676901 82.53988326 -6.2421875 79.3515625 C-6.24166909 77.14103699 -6.24218605 74.93051101 -6.24369812 72.71998596 C-6.24360834 68.08547084 -6.23316672 63.45112948 -6.21508789 58.81665039 C-6.19238739 52.86545495 -6.19185845 46.91451323 -6.19860554 40.9632864 C-6.20194097 36.39864329 -6.19532369 31.83405842 -6.1854763 27.26942635 C-6.18161765 25.07449714 -6.18047883 22.87956147 -6.18206215 20.68462944 C-6.18243149 17.62222742 -6.16984981 14.56015536 -6.15356445 11.49780273 C-6.15604187 10.58398331 -6.15851929 9.67016388 -6.16107178 8.72865295 C-6.08977485 0.36182952 -6.08977485 0.36182952 0 0 Z " fill="currentColor" transform="translate(620.87890625,53.76953125)"/>
  <path d="M0 0 C3.20422288 2.61742544 5.02228951 4.34741543 5.45703125 8.49609375 C5.76495022 18.01789582 5.76495022 18.01789582 2.80859375 21.57421875 C-1.658679 25.50967332 -5.07968505 25.22058947 -10.890625 25.171875 C-14.66809582 24.80371029 -16.39278022 23.79506998 -18.81640625 20.88671875 C-21.51347101 16.38521209 -21.3557913 11.99842939 -20.81640625 6.88671875 C-18.97498052 2.5593683 -16.39280893 -0.00910867 -12.06640625 -1.86328125 C-7.78157183 -2.33937396 -3.7188326 -2.2792845 0 0 Z " fill="currentColor" transform="translate(632.81640625,9.11328125)"/>
  <path d="M0 0 C2.31 0 4.62 0 7 0 C8.65 2.97 10.3 5.94 12 9 C13.65 6.03 15.3 3.06 17 0 C18.99954746 -0.04254356 21.00041636 -0.04080783 23 0 C26.21829969 3.21829969 25.0625 12.80046188 25.0625 17.1875 C25.041875 18.445625 25.02125 19.70375 25 21 C23.02 21 21.04 21 19 21 C18.67 18.36 18.34 15.72 18 13 C16.49440461 14.96382007 15.10868317 16.78263366 14 19 C11.6875 18.875 11.6875 18.875 9 18 C7.1875 14.9375 7.1875 14.9375 6 12 C5.34 14.97 4.68 17.94 4 21 C2.02 21 0.04 21 -2 21 C-1.85888117 18.24968413 -1.71228835 15.49984582 -1.5625 12.75 C-1.52318359 11.97269531 -1.48386719 11.19539063 -1.44335938 10.39453125 C-1.40146484 9.64042969 -1.35957031 8.88632812 -1.31640625 8.109375 C-1.27974854 7.41811523 -1.24309082 6.72685547 -1.20532227 6.01464844 C-0.99324476 3.93371671 -0.55491323 2.01427578 0 0 Z " fill="currentColor" transform="translate(981,55)"/>
  <path d="M0 0 C6.27 0 12.54 0 19 0 C19 1.98 19 3.96 19 6 C17.02 6 15.04 6 13 6 C13 10.95 13 15.9 13 21 C10.69 21 8.38 21 6 21 C6 16.05 6 11.1 6 6 C4.02 6 2.04 6 0 6 C0 4.02 0 2.04 0 0 Z " fill="currentColor" transform="translate(959,55)"/>
</svg>