<?xml version="1.0" encoding="UTF-8"?>
<svg version="1.1" xmlns="http://www.w3.org/2000/svg" width="200" height="67">
<path d="M0 0 C1.65 0 3.3 0 5 0 C5 1.98 5 3.96 5 6 C6.32 6 7.64 6 9 6 C9 7.32 9 8.64 9 10 C7.68 10 6.36 10 5 10 C5.495 15.445 5.495 15.445 6 21 C6.99 21.33 7.98 21.66 9 22 C9 23.32 9 24.64 9 26 C5.625 26.125 5.625 26.125 2 26 C0 24 0 24 -0.1953125 20.7421875 C-0.17210937 19.46601562 -0.14890625 18.18984375 -0.125 16.875 C-0.10695312 15.59367187 -0.08890625 14.31234375 -0.0703125 12.9921875 C-0.04710937 12.00476562 -0.02390625 11.01734375 0 10 C-1.98 10.99 -3.96 11.98 -6 13 C-6.99 12.34 -7.98 11.68 -9 11 C-11.15274948 11.30840599 -11.15274948 11.30840599 -13 12 C-12.37351562 12.18175781 -11.74703125 12.36351562 -11.1015625 12.55078125 C-10.28429687 12.80214844 -9.46703125 13.05351563 -8.625 13.3125 C-7.40683594 13.67794922 -7.40683594 13.67794922 -6.1640625 14.05078125 C-4 15 -4 15 -2 18 C-2 21 -2 21 -3 24 C-6.40160928 26.51071161 -8.33480145 27.03501045 -12.5625 26.8125 C-16 26 -16 26 -18.5625 24.75 C-22.11135787 23.65804373 -23.77946575 25.35687028 -27 27 C-30.88664747 27 -32.64943415 26.2362509 -35.875 24.0625 C-38.49278963 20.28980317 -38.72647252 17.89133499 -38.484375 13.37890625 C-37.71974699 9.6235961 -36.1254881 8.1063072 -33 6 C-29.30862306 4.76954102 -27.778356 4.62851191 -24.25 6.3125 C-22 8 -22 8 -20 10 C-19.875 13.625 -19.875 13.625 -20 17 C-24.29 17 -28.58 17 -33 17 C-32.67 18.32 -32.34 19.64 -32 21 C-29.69 21 -27.38 21 -25 21 C-25 20.34 -25 19.68 -25 19 C-24.0925 19.165 -23.185 19.33 -22.25 19.5 C-18.88912497 20.10137146 -18.88912497 20.10137146 -15 20 C-12.99598989 20.30830925 -10.99488234 20.63729412 -9 21 C-8.67 20.34 -8.34 19.68 -8 19 C-8.93972656 18.83564453 -8.93972656 18.83564453 -9.8984375 18.66796875 C-11.12433594 18.43013672 -11.12433594 18.43013672 -12.375 18.1875 C-13.18710938 18.03667969 -13.99921875 17.88585937 -14.8359375 17.73046875 C-17 17 -17 17 -19 14 C-18.9375 11 -18.9375 11 -18 8 C-15.875 6.0625 -15.875 6.0625 -13 5 C-9.375 5.3125 -9.375 5.3125 -6 6 C-5.01 6 -4.02 6 -3 6 C-2.01 6 -1.02 6 0 6 C0 4.02 0 2.04 0 0 Z M-31 10 C-31.99 11.485 -31.99 11.485 -33 13 C-30.36 13 -27.72 13 -25 13 C-25.66 12.01 -26.32 11.02 -27 10 C-28.32 10 -29.64 10 -31 10 Z " fill="currentColor" transform="translate(80,21)"/>
<path d="M0 0 C4.08375 -0.0928125 4.08375 -0.0928125 8.25 -0.1875 C9.10110352 -0.21481201 9.95220703 -0.24212402 10.82910156 -0.27026367 C14.21377948 -0.30754163 16.44671119 -0.28923889 19.48828125 1.30078125 C21.9190003 4.03298484 21.93830142 6.42148243 22 10 C20.63571607 12.92346557 19.27249091 14.72750909 17 17 C17.3609375 17.55429687 17.721875 18.10859375 18.09375 18.6796875 C18.5578125 19.40414062 19.021875 20.12859375 19.5 20.875 C20.19609375 21.95394531 20.19609375 21.95394531 20.90625 23.0546875 C22 25 22 25 22 27 C19.375 27.5625 19.375 27.5625 16 27 C14.21958531 24.8006642 12.86266266 22.54023006 11.4921875 20.06640625 C10.00982387 17.54591755 10.00982387 17.54591755 6 17 C6 20.3 6 23.6 6 27 C4.02 27 2.04 27 0 27 C0 18.09 0 9.18 0 0 Z M6 4 C6 6.64 6 9.28 6 12 C11.32170494 12.29562367 11.32170494 12.29562367 16 10 C15.67 8.35 15.34 6.7 15 5 C12.03 4.67 9.06 4.34 6 4 Z " fill="currentColor" transform="translate(90,20)"/>
<path d="M0 0 C3.20138199 3.9736123 3.52238637 7.88267889 3.6875 12.8125 C3.73874023 13.85180664 3.73874023 13.85180664 3.79101562 14.91210938 C3.87286344 16.60752849 3.93812365 18.30373458 4 20 C2.89914063 19.98710938 1.79828125 19.97421875 0.6640625 19.9609375 C-2.85560008 19.8633409 -2.85560008 19.8633409 -5.625 20.625 C-8.69975822 21.11048814 -10.2858146 20.46712724 -13 19 C-15 16 -15 16 -14.8125 13.5 C-13.88788775 10.65503924 -13.51394187 9.62189798 -11 8 C-8.31975498 7.45441653 -5.73690355 7.22433636 -3 7 C-3.33 6.34 -3.66 5.68 -4 5 C-4.86625 5.2165625 -4.86625 5.2165625 -5.75 5.4375 C-6.86375 5.7159375 -6.86375 5.7159375 -8 6 C-8.70125 6.20625 -9.4025 6.4125 -10.125 6.625 C-12 7 -12 7 -14 6 C-13.1059808 2.91157003 -12.58228792 1.36600955 -9.8125 -0.375 C-6.13792901 -1.19157133 -3.62819717 -1.00783255 0 0 Z M-9 13 C-9 13.99 -9 14.98 -9 16 C-7.02 15.67 -5.04 15.34 -3 15 C-3 13.68 -3 12.36 -3 11 C-5.46278801 11 -6.85224119 11.85452863 -9 13 Z " fill="currentColor" transform="translate(126,27)"/>
<path d="M0 0 C7.26 0 14.52 0 22 0 C22 1.65 22 3.3 22 5 C19.36 5 16.72 5 14 5 C14 12.26 14 19.52 14 27 C12.02 27 10.04 27 8 27 C8 19.74 8 12.48 8 5 C5.36 5 2.72 5 0 5 C0 3.35 0 1.7 0 0 Z " fill="currentColor" transform="translate(26,20)"/>
<path d="M0 0 C1.65 0 3.3 0 5 0 C5 8.91 5 17.82 5 27 C3.35 27 1.7 27 0 27 C0 18.09 0 9.18 0 0 Z " fill="currentColor" transform="translate(139,20)"/>
<path d="M0 0 C1.65 0 3.3 0 5 0 C5 6.6 5 13.2 5 20 C3.35 20 1.7 20 0 20 C0 13.4 0 6.8 0 0 Z " fill="currentColor" transform="translate(131,27)"/>
<path d="M0 0 C1.9375 0.0625 1.9375 0.0625 4 1 C5.75 3.5625 5.75 3.5625 7 6 C5.25 8.0625 5.25 8.0625 3 10 C0.28535198 9.91773794 -0.73165881 9.23959034 -2.75 7.4375 C-3.1625 6.963125 -3.575 6.48875 -4 6 C-2.84826645 3.53199953 -1.95216435 1.95216435 0 0 Z " fill="currentColor" transform="translate(154,42)"/>
<path d="M0 0 C2.46800047 1.15173355 4.04783565 2.04783565 6 4 C5.875 5.9375 5.875 5.9375 5 8 C2.9375 9.75 2.9375 9.75 1 11 C-0.65 9.68 -2.3 8.36 -4 7 C-3.43628586 3.73045798 -2.50037734 2.17424117 0 0 Z " fill="currentColor" transform="translate(168,28)"/>
<path d="M0 0 C3.26954202 0.56371414 4.82575883 1.49962266 7 4 C5.84826645 6.46800047 4.95216435 8.04783565 3 10 C1.0625 9.875 1.0625 9.875 -1 9 C-2.75 6.9375 -2.75 6.9375 -4 5 C-2.68 3.35 -1.36 1.7 0 0 Z " fill="currentColor" transform="translate(154,15)"/>
<path d="M0 0 C2.41498287 1.24644277 3.47835228 2.73832103 4.9375 5 C3.2875 6.65 1.6375 8.3 -0.0625 10 C-2.68437494 8.95125002 -3.85621361 8.35068687 -5.3125 5.875 C-5.56 5.25625 -5.8075 4.6375 -6.0625 4 C-2.66856061 0 -2.66856061 0 0 0 Z " fill="currentColor" transform="translate(163.0625,22)"/>
<path d="M0 0 C2.46800047 1.15173355 4.04783565 2.04783565 6 4 C5.63318342 6.93453261 5.13562754 7.86437246 3 10 C-0.29279709 9.68134222 -1.86535088 8.45484649 -4 6 C-2.84826645 3.53199953 -1.95216435 1.95216435 0 0 Z " fill="currentColor" transform="translate(161,35)"/>
<path d="M0 0 C1.98 1.65 3.96 3.3 6 5 C4.35 6.98 2.7 8.96 1 11 C-0.98 9.35 -2.96 7.7 -5 6 C-3.35 4.02 -1.7 2.04 0 0 Z " fill="currentColor" transform="translate(155,28)"/>
<path d="M0 0 C1.98 0 3.96 0 6 0 C6 1.65 6 3.3 6 5 C4.02 5 2.04 5 0 5 C0 3.35 0 1.7 0 0 Z " fill="currentColor" transform="translate(131,20)"/>
</svg>
